<svg width="96" height="96" viewBox="0 0 480 480" fill="none" xmlns="http://www.w3.org/2000/svg">
<path d="M59.2 382.8C40.2667 382.8 25.6 377.6 15.2 367.2C5.06667 357.067 0 343.467 0 326.4C0 312 4.4 299.467 13.2 288.8C22 278.133 33.8667 272.8 48.8 272.8C60.2667 272.8 69.6 274.533 76.8 278C84.2667 281.2 88 288.4 88 299.6C88 304.4 87.2 309.733 85.6 315.6C80.8 311.6 76.6667 308.8 73.2 307.2C69.7333 305.867 65.8667 305.2 61.6 305.2C52.8 305.2 45.8667 308.133 40.8 314C36 319.867 33.6 326.8 33.6 334.8C33.6 344.133 36.4 351.067 42 355.6C47.6 360.4 53.8667 362.8 60.8 362.8C67.2 362.8 72.5333 361.467 76.8 358.8C81.3333 356.4 85.3333 351.6 88.8 344.4C92.2667 337.467 95.6 327.2 98.8 313.6L161.6 28C143.733 35.2 129.867 46.2667 120 61.2C110.133 76.1334 105.2 94.2667 105.2 115.6C105.2 125.467 106.133 132.4 108 136.4C109.867 140.133 110.8 142.267 110.8 142.8C96.4 142.8 85.6 139.867 78.4 134C71.4667 127.867 68 117.867 68 104C68 86.9334 74.9333 70.4 88.8 54.4C102.933 38.1334 120.933 25.0667 142.8 15.2C164.667 5.06667 186.533 0 208.4 0H224.4L164.4 284C157.467 316.8 146 341.467 130 358C114 374.533 90.4 382.8 59.2 382.8Z" fill="#999999"/>
<path d="M286.6 190.2C266.333 196.867 250.6 207.933 239.4 223.4C228.467 238.6 223 257.533 223 280.2C223 290.333 223.933 297.267 225.8 301C227.667 304.733 228.6 307 228.6 307.8C200.067 307.8 185.8 295.667 185.8 271.4C185.8 254.867 192.067 238.333 204.6 221.8C217.4 205 233.667 191.4 253.4 181C273.4 170.333 293.267 165 313 165C322.867 165 333 166.867 343.4 170.6L334.2 381.4L422.2 170.6H479.8L437.8 465H380.2L405.8 285.4L330.6 465H275.8L283.8 284.6L217 465H185L286.6 190.2Z" fill="#999999"/>
</svg>
